<svg width="80" height="38" viewBox="0 0 80 38" fill="none" xmlns="http://www.w3.org/2000/svg">
<path d="M0.5 8.00012C0.5 3.85799 3.85786 0.500122 8 0.500122H72C76.1421 0.500122 79.5 3.85799 79.5 8.00012V30.0001C79.5 34.1423 76.1421 37.5001 72 37.5001H8C3.85787 37.5001 0.5 34.1423 0.5 30.0001V8.00012Z" fill="#0E464F"/>
<path d="M0.5 8.00012C0.5 3.85799 3.85786 0.500122 8 0.500122H72C76.1421 0.500122 79.5 3.85799 79.5 8.00012V30.0001C79.5 34.1423 76.1421 37.5001 72 37.5001H8C3.85787 37.5001 0.5 34.1423 0.5 30.0001V8.00012Z" stroke="#2BA4B9"/>
<path d="M33.084 9.51575V12.4161H31.5703V9.51575H33.084ZM32.8984 25.463V28.0802H31.3945V25.463H32.8984ZM34.168 22.2794C34.168 21.9083 34.0964 21.5861 33.9531 21.3126C33.8164 21.0392 33.5853 20.795 33.2598 20.5802C32.9408 20.3654 32.5111 20.1603 31.9707 19.965C31.1309 19.659 30.3952 19.3237 29.7637 18.9591C29.1322 18.588 28.6406 18.129 28.2891 17.5822C27.944 17.0353 27.7715 16.3452 27.7715 15.5118C27.7715 14.7111 27.957 14.0177 28.3281 13.4318C28.7057 12.8393 29.2298 12.3836 29.9004 12.0646C30.571 11.7391 31.349 11.5763 32.2344 11.5763C32.9245 11.5763 33.543 11.6805 34.0898 11.8888C34.6432 12.0906 35.1152 12.3868 35.5059 12.7775C35.903 13.1681 36.2057 13.6499 36.4141 14.2228C36.6289 14.7892 36.7363 15.437 36.7363 16.1661H34.1582C34.1582 15.7625 34.1126 15.4044 34.0215 15.0919C33.9303 14.7794 33.8001 14.5157 33.6309 14.3009C33.4616 14.0795 33.2565 13.9135 33.0156 13.8029C32.7812 13.6922 32.5143 13.6368 32.2148 13.6368C31.7852 13.6368 31.4303 13.7182 31.1504 13.881C30.877 14.0437 30.6751 14.2651 30.5449 14.545C30.4212 14.825 30.3594 15.1473 30.3594 15.5118C30.3594 15.8634 30.4245 16.1726 30.5547 16.4396C30.6914 16.7 30.9193 16.9376 31.2383 17.1525C31.5638 17.3673 32.0098 17.5854 32.5762 17.8068C33.4225 18.1193 34.1582 18.4643 34.7832 18.8419C35.4082 19.213 35.8932 19.6687 36.2383 20.2091C36.5833 20.7495 36.7559 21.4331 36.7559 22.2599C36.7559 23.1062 36.5605 23.8224 36.1699 24.4083C35.7858 24.9943 35.2454 25.4402 34.5488 25.7462C33.8522 26.0522 33.0417 26.2052 32.1172 26.2052C31.5247 26.2052 30.9388 26.1271 30.3594 25.9708C29.7799 25.8146 29.2526 25.5607 28.7773 25.2091C28.3086 24.851 27.9342 24.379 27.6543 23.7931C27.3743 23.2006 27.2344 22.4747 27.2344 21.6154H29.8223C29.8223 22.1101 29.8874 22.5203 30.0176 22.8458C30.1478 23.1713 30.3236 23.4318 30.5449 23.6271C30.7663 23.8159 31.0137 23.9493 31.2871 24.0275C31.5605 24.1056 31.8372 24.1447 32.1172 24.1447C32.5729 24.1447 32.9505 24.0665 33.25 23.9103C33.556 23.754 33.7839 23.5359 33.9336 23.256C34.0898 22.9695 34.168 22.644 34.168 22.2794ZM45.3887 11.7423V26.0001H42.8008V14.7599L39.373 15.8927V13.8029L45.0957 11.7423H45.3887ZM52.7324 19.4572L50.6719 18.9591L51.4629 11.7814H59.2852V13.92H53.6016L53.2305 17.2404C53.4323 17.1167 53.7253 16.993 54.1094 16.8693C54.5 16.7391 54.9395 16.674 55.4277 16.674C56.1048 16.674 56.7103 16.7846 57.2441 17.006C57.778 17.2208 58.2305 17.5333 58.6016 17.9435C58.9792 18.3536 59.2624 18.8549 59.4512 19.4474C59.6465 20.0333 59.7441 20.6974 59.7441 21.4396C59.7441 22.0906 59.6465 22.7026 59.4512 23.2755C59.2624 23.8419 58.9727 24.3465 58.582 24.7892C58.1914 25.2254 57.6999 25.5704 57.1074 25.8243C56.515 26.0717 55.8184 26.1954 55.0176 26.1954C54.4121 26.1954 53.8294 26.1075 53.2695 25.9318C52.7161 25.7495 52.2181 25.4858 51.7754 25.1407C51.3327 24.7892 50.9779 24.3595 50.7109 23.8517C50.4505 23.3439 50.3073 22.7612 50.2812 22.1036H52.8301C52.8757 22.5398 52.9928 22.9109 53.1816 23.2169C53.3704 23.5229 53.6178 23.7573 53.9238 23.92C54.2363 24.0828 54.5977 24.1642 55.0078 24.1642C55.3789 24.1642 55.6979 24.0958 55.9648 23.9591C56.2383 23.8159 56.4629 23.6173 56.6387 23.3634C56.8145 23.1095 56.9447 22.81 57.0293 22.465C57.1139 22.1199 57.1562 21.7423 57.1562 21.3322C57.1562 20.935 57.1074 20.5737 57.0098 20.2482C56.9121 19.9161 56.7624 19.6297 56.5605 19.3888C56.3587 19.1479 56.1048 18.9624 55.7988 18.8322C55.4993 18.7019 55.1478 18.6368 54.7441 18.6368C54.2038 18.6368 53.7871 18.7182 53.4941 18.881C53.2077 19.0437 52.9538 19.2358 52.7324 19.4572ZM71.0137 17.67V20.0626C71.0137 21.1564 70.903 22.0906 70.6816 22.8654C70.4603 23.6401 70.1413 24.2749 69.7246 24.7697C69.3079 25.2579 68.8099 25.6193 68.2305 25.8536C67.651 26.0815 67.0065 26.1954 66.2969 26.1954C65.7305 26.1954 65.2031 26.1238 64.7148 25.9806C64.2266 25.8309 63.7871 25.603 63.3965 25.297C63.0124 24.9845 62.6803 24.5874 62.4004 24.1056C62.127 23.6238 61.9154 23.0476 61.7656 22.3771C61.6224 21.7065 61.5508 20.935 61.5508 20.0626V17.67C61.5508 16.5763 61.6615 15.6453 61.8828 14.8771C62.1107 14.1088 62.4329 13.4806 62.8496 12.9923C63.2663 12.504 63.7643 12.1492 64.3438 11.9279C64.9232 11.7 65.5677 11.5861 66.2773 11.5861C66.8503 11.5861 67.3776 11.6577 67.8594 11.8009C68.3477 11.9441 68.7839 12.1687 69.168 12.4747C69.5586 12.7742 69.8906 13.1648 70.1641 13.6466C70.4375 14.1219 70.6458 14.6948 70.7891 15.3654C70.9388 16.0294 71.0137 16.7976 71.0137 17.67ZM68.4355 20.4142V17.3087C68.4355 16.7618 68.403 16.2866 68.3379 15.8829C68.2793 15.4728 68.1914 15.1245 68.0742 14.838C67.957 14.5516 67.8105 14.3204 67.6348 14.1447C67.459 13.9624 67.2572 13.8289 67.0293 13.7443C66.8014 13.6596 66.5508 13.6173 66.2773 13.6173C65.9388 13.6173 65.6361 13.6857 65.3691 13.8224C65.1022 13.9526 64.8776 14.1609 64.6953 14.4474C64.513 14.7338 64.373 15.1147 64.2754 15.59C64.1842 16.0587 64.1387 16.6316 64.1387 17.3087V20.4142C64.1387 20.9611 64.168 21.4396 64.2266 21.8497C64.2917 22.2599 64.3828 22.6115 64.5 22.9044C64.6237 23.1974 64.7702 23.4383 64.9395 23.6271C65.1152 23.8094 65.3171 23.9461 65.5449 24.0372C65.7728 24.1219 66.0234 24.1642 66.2969 24.1642C66.6419 24.1642 66.9447 24.0958 67.2051 23.9591C67.472 23.8224 67.6966 23.6075 67.8789 23.3146C68.0612 23.0151 68.1979 22.6277 68.2891 22.1525C68.3867 21.6707 68.4355 21.0913 68.4355 20.4142Z" fill="#FAFAFA"/>
</svg>
