<svg width="80" height="38" viewBox="0 0 80 38" fill="none" xmlns="http://www.w3.org/2000/svg">
<path d="M0.5 8.00012C0.5 3.85799 3.85786 0.500122 8 0.500122H72C76.1421 0.500122 79.5 3.85799 79.5 8.00012V30.0001C79.5 34.1423 76.1421 37.5001 72 37.5001H8C3.85787 37.5001 0.5 34.1423 0.5 30.0001V8.00012Z" fill="#0E464F"/>
<path d="M0.5 8.00012C0.5 3.85799 3.85786 0.500122 8 0.500122H72C76.1421 0.500122 79.5 3.85799 79.5 8.00012V30.0001C79.5 34.1423 76.1421 37.5001 72 37.5001H8C3.85787 37.5001 0.5 34.1423 0.5 30.0001V8.00012Z" stroke="#2BA4B9"/>
<path d="M44.5098 9.51575V12.4161H42.9961V9.51575H44.5098ZM44.3242 25.463V28.0802H42.8203V25.463H44.3242ZM45.5938 22.2794C45.5938 21.9083 45.5221 21.5861 45.3789 21.3126C45.2422 21.0392 45.0111 20.795 44.6855 20.5802C44.3665 20.3654 43.9368 20.1603 43.3965 19.965C42.5566 19.659 41.821 19.3237 41.1895 18.9591C40.5579 18.588 40.0664 18.129 39.7148 17.5822C39.3698 17.0353 39.1973 16.3452 39.1973 15.5118C39.1973 14.7111 39.3828 14.0177 39.7539 13.4318C40.1315 12.8393 40.6556 12.3836 41.3262 12.0646C41.9967 11.7391 42.7747 11.5763 43.6602 11.5763C44.3503 11.5763 44.9688 11.6805 45.5156 11.8888C46.069 12.0906 46.541 12.3868 46.9316 12.7775C47.3288 13.1681 47.6315 13.6499 47.8398 14.2228C48.0547 14.7892 48.1621 15.437 48.1621 16.1661H45.584C45.584 15.7625 45.5384 15.4044 45.4473 15.0919C45.3561 14.7794 45.2259 14.5157 45.0566 14.3009C44.8874 14.0795 44.6823 13.9135 44.4414 13.8029C44.207 13.6922 43.9401 13.6368 43.6406 13.6368C43.2109 13.6368 42.8561 13.7182 42.5762 13.881C42.3027 14.0437 42.1009 14.2651 41.9707 14.545C41.847 14.825 41.7852 15.1473 41.7852 15.5118C41.7852 15.8634 41.8503 16.1726 41.9805 16.4396C42.1172 16.7 42.3451 16.9376 42.6641 17.1525C42.9896 17.3673 43.4355 17.5854 44.002 17.8068C44.8483 18.1193 45.584 18.4643 46.209 18.8419C46.834 19.213 47.319 19.6687 47.6641 20.2091C48.0091 20.7495 48.1816 21.4331 48.1816 22.2599C48.1816 23.1062 47.9863 23.8224 47.5957 24.4083C47.2116 24.9943 46.6712 25.4402 45.9746 25.7462C45.278 26.0522 44.4674 26.2052 43.543 26.2052C42.9505 26.2052 42.3646 26.1271 41.7852 25.9708C41.2057 25.8146 40.6784 25.5607 40.2031 25.2091C39.7344 24.851 39.36 24.379 39.0801 23.7931C38.8001 23.2006 38.6602 22.4747 38.6602 21.6154H41.248C41.248 22.1101 41.3132 22.5203 41.4434 22.8458C41.5736 23.1713 41.7493 23.4318 41.9707 23.6271C42.1921 23.8159 42.4395 23.9493 42.7129 24.0275C42.9863 24.1056 43.263 24.1447 43.543 24.1447C43.9987 24.1447 44.3763 24.0665 44.6758 23.9103C44.9818 23.754 45.2096 23.5359 45.3594 23.256C45.5156 22.9695 45.5938 22.644 45.5938 22.2794ZM52.7324 19.4572L50.6719 18.9591L51.4629 11.7814H59.2852V13.92H53.6016L53.2305 17.2404C53.4323 17.1167 53.7253 16.993 54.1094 16.8693C54.5 16.7391 54.9395 16.674 55.4277 16.674C56.1048 16.674 56.7103 16.7846 57.2441 17.006C57.778 17.2208 58.2305 17.5333 58.6016 17.9435C58.9792 18.3536 59.2624 18.8549 59.4512 19.4474C59.6465 20.0333 59.7441 20.6974 59.7441 21.4396C59.7441 22.0906 59.6465 22.7026 59.4512 23.2755C59.2624 23.8419 58.9727 24.3465 58.582 24.7892C58.1914 25.2254 57.6999 25.5704 57.1074 25.8243C56.515 26.0717 55.8184 26.1954 55.0176 26.1954C54.4121 26.1954 53.8294 26.1075 53.2695 25.9318C52.7161 25.7495 52.2181 25.4858 51.7754 25.1407C51.3327 24.7892 50.9779 24.3595 50.7109 23.8517C50.4505 23.3439 50.3073 22.7612 50.2812 22.1036H52.8301C52.8757 22.5398 52.9928 22.9109 53.1816 23.2169C53.3704 23.5229 53.6178 23.7573 53.9238 23.92C54.2363 24.0828 54.5977 24.1642 55.0078 24.1642C55.3789 24.1642 55.6979 24.0958 55.9648 23.9591C56.2383 23.8159 56.4629 23.6173 56.6387 23.3634C56.8145 23.1095 56.9447 22.81 57.0293 22.465C57.1139 22.1199 57.1562 21.7423 57.1562 21.3322C57.1562 20.935 57.1074 20.5737 57.0098 20.2482C56.9121 19.9161 56.7624 19.6297 56.5605 19.3888C56.3587 19.1479 56.1048 18.9624 55.7988 18.8322C55.4993 18.7019 55.1478 18.6368 54.7441 18.6368C54.2038 18.6368 53.7871 18.7182 53.4941 18.881C53.2077 19.0437 52.9538 19.2358 52.7324 19.4572ZM71.0137 17.67V20.0626C71.0137 21.1564 70.903 22.0906 70.6816 22.8654C70.4603 23.6401 70.1413 24.2749 69.7246 24.7697C69.3079 25.2579 68.8099 25.6193 68.2305 25.8536C67.651 26.0815 67.0065 26.1954 66.2969 26.1954C65.7305 26.1954 65.2031 26.1238 64.7148 25.9806C64.2266 25.8309 63.7871 25.603 63.3965 25.297C63.0124 24.9845 62.6803 24.5874 62.4004 24.1056C62.127 23.6238 61.9154 23.0476 61.7656 22.3771C61.6224 21.7065 61.5508 20.935 61.5508 20.0626V17.67C61.5508 16.5763 61.6615 15.6453 61.8828 14.8771C62.1107 14.1088 62.4329 13.4806 62.8496 12.9923C63.2663 12.504 63.7643 12.1492 64.3438 11.9279C64.9232 11.7 65.5677 11.5861 66.2773 11.5861C66.8503 11.5861 67.3776 11.6577 67.8594 11.8009C68.3477 11.9441 68.7839 12.1687 69.168 12.4747C69.5586 12.7742 69.8906 13.1648 70.1641 13.6466C70.4375 14.1219 70.6458 14.6948 70.7891 15.3654C70.9388 16.0294 71.0137 16.7976 71.0137 17.67ZM68.4355 20.4142V17.3087C68.4355 16.7618 68.403 16.2866 68.3379 15.8829C68.2793 15.4728 68.1914 15.1245 68.0742 14.838C67.957 14.5516 67.8105 14.3204 67.6348 14.1447C67.459 13.9624 67.2572 13.8289 67.0293 13.7443C66.8014 13.6596 66.5508 13.6173 66.2773 13.6173C65.9388 13.6173 65.6361 13.6857 65.3691 13.8224C65.1022 13.9526 64.8776 14.1609 64.6953 14.4474C64.513 14.7338 64.373 15.1147 64.2754 15.59C64.1842 16.0587 64.1387 16.6316 64.1387 17.3087V20.4142C64.1387 20.9611 64.168 21.4396 64.2266 21.8497C64.2917 22.2599 64.3828 22.6115 64.5 22.9044C64.6237 23.1974 64.7702 23.4383 64.9395 23.6271C65.1152 23.8094 65.3171 23.9461 65.5449 24.0372C65.7728 24.1219 66.0234 24.1642 66.2969 24.1642C66.6419 24.1642 66.9447 24.0958 67.2051 23.9591C67.472 23.8224 67.6966 23.6075 67.8789 23.3146C68.0612 23.0151 68.1979 22.6277 68.2891 22.1525C68.3867 21.6707 68.4355 21.0913 68.4355 20.4142Z" fill="#FAFAFA"/>
</svg>
