<svg width="32" height="32" viewBox="0 0 32 32" fill="none" xmlns="http://www.w3.org/2000/svg">
<path d="M25.2639 14.8161C24.6812 10.2267 20.7505 6.66675 16.0052 6.66675C12.3305 6.66675 9.13854 8.81475 7.68121 12.2001C4.81721 13.0561 2.67188 15.7601 2.67188 18.6667C2.67188 22.3427 5.66254 25.3334 9.33854 25.3334H10.6719V22.6667H9.33854C7.13321 22.6667 5.33854 20.8721 5.33854 18.6667C5.33854 16.7947 6.93721 14.9907 8.90254 14.6454L9.67721 14.5094L9.93321 13.7654C10.8705 11.0307 13.1972 9.33341 16.0052 9.33341C19.6812 9.33341 22.6719 12.3241 22.6719 16.0001V17.3334H24.0052C25.4759 17.3334 26.6719 18.5294 26.6719 20.0001C26.6719 21.4707 25.4759 22.6667 24.0052 22.6667H21.3385V25.3334H24.0052C26.9465 25.3334 29.3385 22.9414 29.3385 20.0001C29.337 18.8048 28.9347 17.6445 28.196 16.7047C27.4574 15.765 26.425 15.1 25.2639 14.8161Z" fill="#FAFAFA"/>
<path d="M17.3385 18.6667V13.3334H14.6719V18.6667H10.6719L16.0052 25.3334L21.3385 18.6667H17.3385Z" fill="#FAFAFA"/>
</svg>
