<svg width="80" height="38" viewBox="0 0 80 38" fill="none" xmlns="http://www.w3.org/2000/svg">
<path d="M0.5 8.00012C0.5 3.85799 3.85786 0.500122 8 0.500122H72C76.1421 0.500122 79.5 3.85799 79.5 8.00012V30.0001C79.5 34.1423 76.1421 37.5001 72 37.5001H8C3.85787 37.5001 0.5 34.1423 0.5 30.0001V8.00012Z" fill="#0E464F"/>
<path d="M0.5 8.00012C0.5 3.85799 3.85786 0.500122 8 0.500122H72C76.1421 0.500122 79.5 3.85799 79.5 8.00012V30.0001C79.5 34.1423 76.1421 37.5001 72 37.5001H8C3.85787 37.5001 0.5 34.1423 0.5 30.0001V8.00012Z" stroke="#2BA4B9"/>
<path d="M36.043 11.7814V26.0001H33.3574V11.7814H36.043ZM41.7754 17.924V20.0431H35.3398V17.924H41.7754ZM42.5273 11.7814V13.9005H35.3398V11.7814H42.5273ZM46.4824 17.5919V26.0001H43.9043V15.4337H46.3457L46.4824 17.5919ZM49.6953 15.3654L49.6562 17.7677C49.513 17.7417 49.3503 17.7221 49.168 17.7091C48.9922 17.6961 48.8262 17.6896 48.6699 17.6896C48.2728 17.6896 47.9245 17.7449 47.625 17.8556C47.3255 17.9598 47.0749 18.1128 46.873 18.3146C46.6777 18.5164 46.528 18.7638 46.4238 19.0568C46.3197 19.3432 46.2611 19.6687 46.248 20.0333L45.6914 19.965C45.6914 19.2944 45.7598 18.6726 45.8965 18.0997C46.0332 17.5268 46.2318 17.0255 46.4922 16.5958C46.7526 16.1661 47.0781 15.8341 47.4688 15.5997C47.8659 15.3588 48.3216 15.2384 48.8359 15.2384C48.9792 15.2384 49.1322 15.2514 49.2949 15.2775C49.4642 15.297 49.5977 15.3263 49.6953 15.3654ZM55.6621 26.1954C54.8613 26.1954 54.1419 26.0652 53.5039 25.8048C52.8659 25.5444 52.3223 25.1831 51.873 24.7208C51.4303 24.2521 51.0885 23.7085 50.8477 23.09C50.6133 22.465 50.4961 21.7944 50.4961 21.0782V20.6876C50.4961 19.8738 50.6133 19.1349 50.8477 18.4708C51.082 17.8003 51.4141 17.2241 51.8438 16.7423C52.2734 16.2605 52.7878 15.8894 53.3867 15.629C53.9857 15.3686 54.6465 15.2384 55.3691 15.2384C56.1178 15.2384 56.7786 15.3654 57.3516 15.6193C57.9245 15.8667 58.403 16.2182 58.7871 16.674C59.1712 17.1297 59.4609 17.6766 59.6562 18.3146C59.8516 18.9461 59.9492 19.646 59.9492 20.4142V21.4982H51.668V19.7208H57.4102V19.5255C57.3971 19.1154 57.319 18.741 57.1758 18.4025C57.0326 18.0574 56.8112 17.784 56.5117 17.5822C56.2122 17.3738 55.8249 17.2697 55.3496 17.2697C54.9655 17.2697 54.6302 17.3543 54.3438 17.5236C54.0638 17.6863 53.8294 17.9207 53.6406 18.2267C53.4583 18.5262 53.3216 18.8842 53.2305 19.3009C53.1393 19.7176 53.0938 20.1798 53.0938 20.6876V21.0782C53.0938 21.521 53.1523 21.9311 53.2695 22.3087C53.3932 22.6863 53.5723 23.0151 53.8066 23.295C54.0475 23.5685 54.334 23.7833 54.666 23.9396C55.0046 24.0893 55.3887 24.1642 55.8184 24.1642C56.3587 24.1642 56.847 24.06 57.2832 23.8517C57.7259 23.6368 58.11 23.3211 58.4355 22.9044L59.7344 24.2521C59.513 24.5776 59.2135 24.8901 58.8359 25.1896C58.4648 25.4891 58.0156 25.7332 57.4883 25.922C56.9609 26.1043 56.3522 26.1954 55.6621 26.1954ZM66.4238 26.1954C65.623 26.1954 64.9036 26.0652 64.2656 25.8048C63.6276 25.5444 63.084 25.1831 62.6348 24.7208C62.1921 24.2521 61.8503 23.7085 61.6094 23.09C61.375 22.465 61.2578 21.7944 61.2578 21.0782V20.6876C61.2578 19.8738 61.375 19.1349 61.6094 18.4708C61.8438 17.8003 62.1758 17.2241 62.6055 16.7423C63.0352 16.2605 63.5495 15.8894 64.1484 15.629C64.7474 15.3686 65.4082 15.2384 66.1309 15.2384C66.8796 15.2384 67.5404 15.3654 68.1133 15.6193C68.6862 15.8667 69.1647 16.2182 69.5488 16.674C69.9329 17.1297 70.2227 17.6766 70.418 18.3146C70.6133 18.9461 70.7109 19.646 70.7109 20.4142V21.4982H62.4297V19.7208H68.1719V19.5255C68.1589 19.1154 68.0807 18.741 67.9375 18.4025C67.7943 18.0574 67.5729 17.784 67.2734 17.5822C66.974 17.3738 66.5866 17.2697 66.1113 17.2697C65.7272 17.2697 65.3919 17.3543 65.1055 17.5236C64.8255 17.6863 64.5911 17.9207 64.4023 18.2267C64.2201 18.5262 64.0833 18.8842 63.9922 19.3009C63.901 19.7176 63.8555 20.1798 63.8555 20.6876V21.0782C63.8555 21.521 63.9141 21.9311 64.0312 22.3087C64.1549 22.6863 64.334 23.0151 64.5684 23.295C64.8092 23.5685 65.0957 23.7833 65.4277 23.9396C65.7663 24.0893 66.1504 24.1642 66.5801 24.1642C67.1204 24.1642 67.6087 24.06 68.0449 23.8517C68.4876 23.6368 68.8717 23.3211 69.1973 22.9044L70.4961 24.2521C70.2747 24.5776 69.9753 24.8901 69.5977 25.1896C69.2266 25.4891 68.7773 25.7332 68.25 25.922C67.7227 26.1043 67.1139 26.1954 66.4238 26.1954Z" fill="#FAFAFA"/>
</svg>
