<svg width="78" height="64" viewBox="0 0 78 64" fill="none" xmlns="http://www.w3.org/2000/svg">
<path d="M34.4809 62.3839C33.3318 62.9905 31.9089 62.5824 31.2558 61.4591L21.595 44.8414L10.1331 30.0015C9.134 28.708 9.67635 26.8166 11.2091 26.2491L28.7932 19.7381L45.7922 10.7649C46.9412 10.1583 48.3642 10.5663 49.0172 11.6896L58.6781 28.3074L70.14 43.1473C71.139 44.4408 70.5967 46.3322 69.064 46.8997L51.4798 53.4107L34.4809 62.3839Z" fill="url(#paint0_linear_14_335)"/>
<path d="M50.6902 28.755C50.7064 28.7843 50.7454 28.82 50.807 28.8623C50.8686 28.9045 50.953 28.9533 51.0601 29.0086L51.6734 29.1845C51.7254 29.1748 51.8195 29.1895 51.9558 29.2286C51.972 29.2578 52.011 29.2935 52.0726 29.3358C52.1115 29.3716 52.1618 29.4106 52.2234 29.4528L52.574 29.5165C52.6941 29.5263 52.785 29.5524 52.8466 29.5946C52.892 29.6077 52.9261 29.6174 52.9488 29.6239C53.0851 29.663 53.1857 29.741 53.2505 29.858L53.1919 30.0624C53.1949 30.3091 53.1412 30.4535 53.0308 30.4956C53.047 30.5249 53.0892 30.5493 53.1573 30.5688C53.167 30.6208 53.1572 30.6548 53.128 30.671C53.0922 30.71 53.0711 30.7408 53.0646 30.7635L53.0012 30.856C52.9817 30.9241 53.027 31.0232 53.1373 31.1531C53.1112 31.244 53.0056 31.3121 52.8206 31.3573L52.8108 31.3914C52.8886 31.4629 52.9405 31.5392 52.9664 31.6204C52.9761 31.6724 52.9662 31.7925 52.9368 31.9807C52.9074 32.169 52.8618 32.414 52.7998 32.7159C52.9197 32.8978 52.9471 33.1023 52.882 33.3295C52.8624 33.3977 52.7373 33.6199 52.5064 33.9963C52.555 34.084 52.6556 34.162 52.8081 34.2303C52.8405 34.2887 52.8388 34.3374 52.8031 34.3764L52.5495 34.7462C52.5722 34.7527 52.59 34.8193 52.6029 34.9459C52.6126 34.9978 52.619 35.0612 52.6222 35.1358C52.6254 35.2105 52.6334 35.3111 52.6462 35.4377C52.604 35.4994 52.5503 35.6438 52.4851 35.871C52.4851 35.871 52.5013 35.9002 52.5338 35.9587C52.5207 36.0041 52.5141 36.1128 52.514 36.2849C52.4846 36.4732 52.4568 36.6987 52.4305 36.9617C52.4043 37.2246 52.3879 37.4534 52.3812 37.6482C52.3518 37.8365 52.3208 37.9874 52.2882 38.101C52.2426 38.26 52.176 38.3638 52.0883 38.4124C52.098 38.4644 52.1872 38.5391 52.3559 38.6367C52.6285 38.7149 52.9158 38.6989 53.2178 38.5888L53.6814 37.6154C53.7106 37.5992 53.7512 37.5862 53.8031 37.5765C53.8324 37.5603 53.8762 37.536 53.9347 37.5036L53.9542 37.4355C53.9607 37.4127 53.9738 37.3673 53.9933 37.2992C53.9836 37.2472 53.9772 37.1839 53.974 37.1092C53.8831 37.0832 53.7939 37.0084 53.7064 36.885L53.8918 36.4956C53.9828 36.3496 54.0073 36.2214 53.9652 36.111L54.2281 36.2232L54.3353 36.1065L54.2722 35.9408C54.2301 35.8304 54.2155 35.7525 54.2286 35.7071L54.7505 34.7872L54.7655 34.349C54.785 34.2809 54.8127 34.2273 54.8484 34.1884L54.9654 34.0376C54.9753 33.9175 54.9916 33.7746 55.0145 33.6091C55.0309 33.4663 55.0505 33.3121 55.0734 33.1466C55.0864 33.1011 55.1953 33.0217 55.3999 32.9083C55.6468 32.7332 55.7702 32.6457 55.7702 32.6457C55.7963 32.5548 55.7363 32.4638 55.5903 32.3728C55.4378 32.3045 55.3615 32.2703 55.3615 32.2703L55.923 30.698L56.0303 30.5813C56.0627 30.6397 56.134 30.734 56.2442 30.8639L56.4585 30.8885C56.5331 30.8853 56.5932 30.8902 56.6386 30.9032L57.1009 31.2202C57.1009 31.2202 57.1529 31.2105 57.2568 31.1911C57.3607 31.1718 57.424 31.1653 57.4467 31.1718C57.7485 31.2338 57.953 31.2924 58.0601 31.3477C58.099 31.3835 58.1574 31.4371 58.2352 31.5086C58.3131 31.5801 58.399 31.6662 58.4931 31.7669L58.5953 31.7962C58.7318 31.6632 58.8454 31.6098 58.9363 31.6358L59.3159 31.8553C59.3451 31.8391 59.3825 31.8375 59.4279 31.8506C59.4733 31.8636 59.522 31.8653 59.574 31.8556C59.7557 31.9077 59.8238 32.0133 59.7782 32.1723C59.6905 32.2209 59.5784 32.3117 59.442 32.4447C59.4516 32.4966 59.4272 32.6248 59.3685 32.8293C59.3555 32.8747 59.3425 32.9201 59.3295 32.9656C59.2872 33.0272 59.2417 33.1002 59.1929 33.1846L59.0466 33.4376C59.0401 33.4604 59.027 33.5058 59.0075 33.5739C58.988 33.6421 58.9733 33.7362 58.9634 33.8563L58.9143 34.2848C58.5854 35.346 58.2795 36.1557 57.9965 36.7138L57.8064 36.9911C57.7868 37.0593 57.7786 37.1307 57.7818 37.2054L57.7913 37.4294C57.7848 37.4521 57.7458 37.5024 57.6743 37.5802C57.7002 37.6614 57.6742 37.7523 57.5962 37.8528L57.3817 38.0864C57.3752 38.1091 57.3654 38.1432 57.3524 38.1886C57.3393 38.234 57.3311 38.3054 57.3278 38.4028L57.308 38.7291C57.3015 38.7518 57.2251 38.8897 57.0788 39.1427C56.9324 39.3958 56.8447 39.5304 56.8154 39.5466C56.8672 39.709 56.8849 39.8616 56.8686 40.0044C56.8101 40.0368 56.7516 40.0692 56.6932 40.1016C56.6347 40.1341 56.573 40.1778 56.508 40.2329C56.4689 40.3693 56.4947 40.5365 56.5854 40.7346L55.3648 44.2199C55.3063 44.2523 55.2446 44.2961 55.1796 44.3512C55.0919 44.3998 55.0156 44.4517 54.9506 44.5068C54.9668 44.5361 55.009 44.5604 55.0771 44.58L55.0035 45.2227C54.9448 45.4271 54.8911 45.5715 54.8424 45.6559L54.8471 45.7679C54.8179 45.7841 54.7675 45.8311 54.696 45.909L54.6276 46.1475C54.6146 46.1929 54.6129 46.2416 54.6226 46.2936C54.6096 46.339 54.5998 46.3731 54.5933 46.3958C54.5056 46.4444 54.4081 46.5271 54.3009 46.6439L54.3588 47.2137L54.2415 47.6226C54.1993 47.6842 54.1424 47.754 54.0709 47.8318C53.9994 47.9096 53.9247 47.9988 53.8467 48.0994C53.8402 48.1221 53.8483 48.1367 53.871 48.1433C53.8645 48.166 53.8579 48.1887 53.8514 48.2114C53.8319 48.2796 53.801 48.3445 53.7587 48.4061C53.6937 48.4612 53.6369 48.531 53.5881 48.6153C53.6367 48.703 53.6755 48.8248 53.7046 48.9806L53.5435 49.4139C53.5175 49.5047 53.3583 49.6312 53.0659 49.7932C52.8029 49.9391 52.6631 50.0834 52.6468 50.2262L53.2842 50.704C53.2062 50.8046 53.1185 50.8532 53.0211 50.8498L52.8254 51.7895C52.861 51.9226 52.8723 52.0119 52.8593 52.0573C52.606 52.083 52.4486 52.0748 52.387 52.0325C52.3415 52.0195 52.275 51.9512 52.1875 51.8278C52.1227 51.7109 52.0449 51.6394 51.954 51.6133C51.8955 51.6457 51.8257 51.6749 51.7445 51.7008C51.6406 51.7202 51.54 51.7282 51.4426 51.7248C51.4102 51.6664 51.3583 51.59 51.287 51.4958C51.1864 51.4178 51.0891 51.3285 50.9951 51.2277L50.9219 51.3543L50.6638 51.354C50.5307 51.3896 50.456 51.3928 50.4398 51.3635C50.3944 51.3505 50.3117 51.253 50.1918 51.0711C50.0783 50.8665 49.9989 50.7577 49.9535 50.7447C49.908 50.7316 49.7895 50.7591 49.5979 50.8271C49.4713 50.84 49.3707 50.848 49.296 50.8512C49.1986 50.8478 49.1305 50.8283 49.0915 50.7925L48.965 50.7194C48.965 50.7194 48.9131 50.7291 48.8092 50.7484C48.7507 50.7808 48.6987 50.7905 48.6533 50.7775C48.5624 50.7515 48.4701 50.602 48.3762 50.3293C48.3307 50.3162 48.2609 50.3454 48.1667 50.4167C48.079 50.4653 48.0271 50.475 48.0109 50.4458L47.534 50.0509C47.4886 50.0379 47.4432 50.0248 47.3977 50.0118C47.3458 50.0215 47.2938 50.0312 47.2419 50.0409L47.1301 49.7876L46.4438 49.4801C46.4276 49.4509 46.4114 49.4217 46.3952 49.3924C46.379 49.3632 46.3514 49.3307 46.3125 49.295C45.9783 49.1745 45.7041 49.059 45.4899 48.9485L44.9938 48.3637C44.9938 48.3637 44.9841 48.3117 44.9647 48.2078L44.9745 48.1737C45.0201 48.0147 44.9489 47.8345 44.7608 47.633L44.3035 47.17L44.3914 46.8633L44.3285 46.4396C44.3903 46.3098 44.4667 46.1719 44.5578 46.0259C44.6423 45.9026 44.7301 45.768 44.8211 45.622C44.8276 45.5993 44.8195 45.5847 44.7968 45.5782L44.5776 45.6997C44.4606 45.7645 44.3681 45.7871 44.2999 45.7676L44.2416 45.714C44.2254 45.6847 44.2222 45.6101 44.232 45.49C44.2419 45.3699 44.2534 45.2011 44.2666 44.9836L44.2132 44.7839L44.3109 44.4431L44.4425 44.3702C44.4557 44.1527 44.4769 44.0359 44.5061 44.0197C44.5808 44.0165 44.6685 43.9679 44.7692 43.8738C44.7692 43.8738 44.753 43.8446 44.7206 43.7861C44.7044 43.7569 44.6281 43.7227 44.4918 43.6837L44.5114 43.6155C44.5244 43.5701 44.5797 43.463 44.6772 43.2943L44.7113 43.3041C44.734 43.3106 44.7909 43.2408 44.8819 43.0948C44.973 42.9488 44.9958 42.8693 44.9503 42.8563C44.8822 42.8367 44.8189 42.8432 44.7604 42.8756C44.7247 42.9145 44.697 42.968 44.6775 43.0362C44.6579 43.1044 44.6547 43.1157 44.6677 43.0703L44.8484 42.5689C44.8776 42.5527 44.928 42.5057 44.9995 42.4278C45.0255 42.337 45.0727 42.2153 45.141 42.0628C45.1866 41.9037 45.2501 41.7252 45.3314 41.5273L45.5898 41.2695C45.6808 41.1235 45.767 40.9515 45.8483 40.7536L45.8826 40.5052C45.9119 40.489 45.9298 40.4696 45.9363 40.4469C45.9428 40.4241 45.9639 40.3933 45.9997 40.3544C46.1071 40.0656 46.2712 39.8791 46.492 39.7949L46.5311 39.6586C46.5441 39.6131 46.5718 39.5596 46.614 39.498C46.6271 39.4525 46.6547 39.399 46.697 39.3374C46.8074 39.2953 47.1875 38.9986 47.8373 38.4473L48.183 38.399C48.3389 38.3699 48.4591 38.2937 48.5436 38.1705C48.508 38.0373 48.4935 37.8734 48.5002 37.6786C48.5458 37.5196 48.6254 37.4564 48.739 37.4889C48.8753 37.528 48.9467 37.5362 48.9532 37.5135C48.9728 37.4453 48.903 37.3884 48.744 37.3428C48.6304 37.3103 48.5932 37.2258 48.6323 37.0895L48.7836 36.6904C49.2121 36.7395 49.4361 36.73 49.4556 36.6618C49.4686 36.6164 49.2431 36.5025 48.7791 36.3203C48.8083 36.3041 48.8717 36.2116 48.9693 36.0429L48.8282 35.8918L48.868 34.9813L48.8001 34.7037C48.9917 34.6357 49.1736 34.5157 49.3458 34.3438L49.3167 34.188C49.2227 34.0873 49.153 33.9444 49.1078 33.7593C49.0819 33.6781 49.0804 33.5547 49.1033 33.3892L48.9136 33.1504C48.9266 33.105 48.9429 33.0482 48.9624 32.98C48.982 32.9119 48.9902 32.8405 48.987 32.7658C49.0227 32.7269 49.0667 32.6166 49.1188 32.4348C49.0702 32.3471 49.0621 32.2465 49.0947 32.1329L49.2415 31.3637C49.2253 31.3344 49.2156 31.2825 49.2125 31.2078C49.2093 31.1331 49.2126 31.0358 49.2225 30.9157C49.3686 30.8346 49.4547 30.7487 49.4808 30.6578C49.5426 30.528 49.5167 30.4468 49.4031 30.4143C49.3804 30.4078 49.3171 30.4142 49.2132 30.4336L49.3452 29.8445C49.3452 29.8445 49.3066 29.5507 49.2292 28.963C49.213 28.9338 49.2212 28.8624 49.2538 28.7488C49.3254 28.4989 49.4521 28.4 49.6339 28.4521C49.8383 28.5107 49.9649 28.5839 50.0135 28.6716C50.0556 28.782 50.088 28.8405 50.1107 28.847C50.2503 28.7887 50.4435 28.758 50.6902 28.755ZM48.4746 49.2143C48.4389 49.2532 48.4372 49.3019 48.4696 49.3603C48.502 49.4188 48.5475 49.4318 48.6059 49.3994C48.619 49.354 48.5752 49.2923 48.4746 49.2143ZM52.8139 48.6146L52.6482 48.6777C52.6417 48.7004 52.6872 48.7135 52.7845 48.7168C52.8073 48.7233 52.817 48.6892 52.8139 48.6146ZM52.4831 48.2247C52.4215 48.1824 52.3435 48.197 52.2493 48.2683C52.2817 48.3268 52.3093 48.3593 52.332 48.3658C52.4002 48.3853 52.4505 48.3383 52.4831 48.2247ZM46.2571 46.1444C46.1955 46.1021 46.1175 46.1167 46.0233 46.188C46.0395 46.2172 46.0703 46.2384 46.1158 46.2514C46.1839 46.2709 46.231 46.2353 46.2571 46.1444ZM50.8924 41.4255L50.4832 41.5663L50.0207 41.5074L49.9475 41.634L49.9473 41.892C49.9181 41.9082 49.8742 41.9325 49.8158 41.965C49.7346 41.9908 49.6388 42.0248 49.5284 42.0669C49.4796 42.1513 49.3886 42.2113 49.2555 42.2468C49.1904 42.474 49.0618 42.7937 48.8699 43.2058C48.8438 43.2966 48.8113 43.4102 48.7722 43.5465C48.7104 43.6763 48.6453 43.8175 48.577 43.97C48.5413 44.0089 48.5055 44.0478 48.4698 44.0867C48.4275 44.1484 48.382 44.2214 48.3332 44.3057L48.3623 44.4616C48.3817 44.5655 48.3914 44.6174 48.3914 44.6174C48.3945 44.6921 48.3798 44.7862 48.3473 44.8998C48.3277 44.968 48.3049 45.0475 48.2789 45.1384C48.2301 45.2227 48.1781 45.3184 48.1228 45.4255L47.9617 45.8587L47.9421 45.9269C47.877 46.1541 48.0505 46.3636 48.4625 46.5555L48.886 46.7507L49.2413 46.9264C49.3322 46.9524 49.4377 46.9704 49.5578 46.9802C49.6486 47.0063 49.7541 47.0242 49.8742 47.0341C50.0236 47.0277 50.1778 46.9613 50.337 46.8349L50.4004 46.7424C50.5466 46.6614 50.6586 46.5706 50.7367 46.4701C50.7432 46.4473 50.7448 46.3986 50.7417 46.324C50.7093 46.2655 50.698 46.1762 50.7078 46.0561L50.679 45.6422C50.7375 45.6098 50.8317 45.5385 50.9616 45.4282C51.0104 45.3439 51.0705 45.2628 51.142 45.1849C51.1908 45.1006 51.2542 45.0081 51.3322 44.9075C51.3322 44.9075 51.2982 44.8117 51.2302 44.6201C51.1688 44.4058 51.138 44.2987 51.138 44.2987C51.1868 44.2143 51.2469 44.1332 51.3184 44.0554C51.3607 43.9937 51.4095 43.9094 51.4647 43.8023L51.6015 43.3252L51.8017 42.7557L51.831 42.6535C51.8897 42.449 51.8785 42.2737 51.7975 42.1275C51.7716 42.0464 51.723 41.9587 51.6516 41.8644C51.6289 41.8579 51.5623 41.8757 51.4519 41.9178C51.3642 41.9664 51.309 41.9875 51.2863 41.981C51.2182 41.9614 51.1096 41.7828 50.9606 41.445L50.8924 41.4255ZM47.4425 43.9397C47.3062 43.9006 47.0756 44.0189 46.7507 44.2945C46.7993 44.3822 46.8252 44.4634 46.8283 44.538L47.1057 44.7282C47.1966 44.7543 47.3297 44.7187 47.5051 44.6215C47.5572 44.4397 47.5363 44.2125 47.4425 43.9397ZM53.796 45.0608C53.7344 45.0186 53.6564 45.0331 53.5622 45.1044C53.5946 45.1629 53.6222 45.1954 53.6449 45.2019C53.7131 45.2214 53.7634 45.1744 53.796 45.0608ZM53.8578 41.5013C53.8286 41.5175 53.8075 41.5484 53.7944 41.5938C53.7749 41.662 53.8106 41.7091 53.9014 41.7351C53.9437 41.6735 53.9292 41.5955 53.8578 41.5013ZM51.3507 40.8562C51.3118 40.8204 51.2338 40.835 51.1169 40.8998C51.1331 40.929 51.1753 40.9534 51.2434 40.9729C51.3116 40.9925 51.3473 40.9536 51.3507 40.8562ZM49.1076 39.0329L48.9858 39.0717C48.9728 39.1172 48.9744 39.1545 48.9906 39.1837L49.1076 39.0329ZM53.3143 39.5384C53.2786 39.5774 53.2769 39.6261 53.3093 39.6845C53.319 39.7365 53.3677 39.7381 53.4554 39.6895C53.4749 39.6214 53.4279 39.571 53.3143 39.5384ZM50.7979 38.4112C50.7363 38.3689 50.6762 38.364 50.6177 38.3964C50.5885 38.4126 50.5836 38.4727 50.603 38.5766C50.6484 38.5896 50.7134 38.5345 50.7979 38.4112ZM49.8557 35.7808C49.82 35.8197 49.8183 35.8684 49.8507 35.9269C49.8669 35.9561 49.927 35.9611 50.0309 35.9417C50.0504 35.8735 49.992 35.8199 49.8557 35.7808ZM51.7084 33.4355C51.6629 33.4225 51.585 33.437 51.4746 33.4791C51.3707 33.4985 51.3074 33.5049 51.2847 33.4984L51.2506 33.4886L51.1333 33.8976L51.5129 34.1171C51.5455 34.0035 51.5537 33.9321 51.5375 33.9028C51.5375 33.9028 51.5716 33.8266 51.64 33.6741C51.6757 33.6351 51.7066 33.5702 51.7327 33.4794C51.7392 33.4566 51.7311 33.442 51.7084 33.4355ZM57.4921 34.6146C57.3363 34.6436 57.2486 34.6922 57.229 34.7604C57.203 34.8513 57.2597 34.9536 57.3992 35.0673L57.6327 35.2818L57.7204 35.2332C57.701 35.1293 57.6703 35.0221 57.6282 34.9117C57.5796 34.824 57.5342 34.725 57.4921 34.6146ZM58.2195 32.721C58.1837 32.76 58.182 32.8087 58.2145 32.8671C58.2241 32.9191 58.2728 32.9207 58.3605 32.8721C58.3801 32.804 58.333 32.7536 58.2195 32.721ZM57.3285 32.6131L57.4307 32.6424C57.4145 32.6132 57.3967 32.5466 57.3773 32.4427L57.3285 32.6131ZM39.1856 25.4561L39.4289 25.6365C39.7112 25.7667 39.9741 25.8789 40.2175 25.9733C40.4446 26.0384 40.6458 26.1084 40.8211 26.1832L41.1132 26.1933L41.8724 26.6322L42.2084 26.6179L43.1235 27.0278L43.6444 27.1403C43.6899 27.1534 43.7385 27.155 43.7905 27.1453L43.9366 27.1504L45.3092 27.7652L45.5672 27.7655C45.6062 27.8012 45.6678 27.8435 45.7522 27.8922C45.8138 27.9345 45.8868 27.98 45.9712 28.0288L46.0929 27.9899C46.1319 28.0257 46.2422 28.0696 46.4239 28.1217L46.5019 28.1072L47.1152 28.2831C47.456 28.3808 47.5369 28.613 47.358 28.9796L47.1629 29.4031C47.0945 29.5556 47.0474 29.6773 47.0213 29.7682C46.9887 29.8818 46.9627 29.9726 46.9431 30.0408C46.9074 30.0797 46.8457 30.1235 46.758 30.1721C46.6638 30.2434 46.5208 30.3131 46.3293 30.3811L46.3097 30.4492L46.6309 30.6151L46.6259 30.7612C46.5803 30.9202 46.4991 31.0321 46.3821 31.0969C46.1937 31.2396 46.0686 31.3758 46.0068 31.5056C46.1139 31.5609 46.1673 31.6746 46.1672 31.8466L46.1619 32.2508C46.1619 32.2508 46.0513 32.5509 45.8299 33.1513L45.6207 32.9807C45.5915 32.9969 45.5606 33.0618 45.528 33.1754L45.4694 33.3798C45.518 33.4675 45.5552 33.5519 45.5811 33.6331L45.5957 33.7111C45.5826 33.7565 45.5339 33.8408 45.4493 33.9641C45.3648 34.0874 45.3226 34.149 45.3226 34.149C45.2965 34.2399 45.3191 34.3325 45.3905 34.4267C45.3644 34.5175 45.3091 34.6246 45.2246 34.7479C45.2246 34.7479 45.2375 34.7885 45.2634 34.8697C45.2439 34.9378 45.2228 34.9686 45.2 34.9621C45.1902 35.0822 45.143 35.2039 45.0585 35.3272C44.9578 35.4212 44.9074 35.4683 44.9074 35.4683L44.8778 35.8286C44.868 35.9487 44.8679 36.0347 44.8776 36.0867C44.8808 36.1613 44.8791 36.21 44.8726 36.2327C44.8596 36.2782 44.7946 36.3333 44.6777 36.3981C44.5607 36.4629 44.4957 36.518 44.4827 36.5635C44.4827 36.5635 44.4859 36.6381 44.4922 36.7875C44.5409 36.8752 44.5619 36.9304 44.5554 36.9531L44.2189 37.4835C44.3195 37.5616 44.3031 37.7044 44.1698 37.912L43.9503 38.2916C43.9404 38.4117 43.9371 38.5091 43.9403 38.5838C43.9207 38.6519 43.9045 38.7087 43.8914 38.7542L43.6865 39.2117L43.4477 39.4014C43.4574 39.4533 43.4654 39.554 43.4718 39.7033L43.2813 40.2388C43.3104 40.3946 43.3217 40.4839 43.3152 40.5066L42.8764 41.0077C42.8764 41.0077 42.8845 41.0224 42.9007 41.0516C42.8942 41.0743 42.8958 41.1116 42.9055 41.1636C42.886 41.2317 42.8632 41.3113 42.8371 41.4021C42.7818 41.5092 42.72 41.639 42.6517 41.7915L42.6026 42.22C42.5864 42.1907 42.5148 42.3546 42.3879 42.7116L42.3974 42.9356C42.4071 42.9875 42.42 43.0281 42.4362 43.0573C42.4297 43.0801 42.4232 43.1028 42.4167 43.1255C42.3809 43.1644 42.3452 43.2033 42.3095 43.2423C42.2737 43.2812 42.2461 43.3347 42.2265 43.4029L41.8555 44.4397L41.0204 46.9661C40.8286 47.2062 40.7165 47.383 40.6839 47.4966L40.6691 47.6767C40.6561 47.7222 40.6577 47.7595 40.6739 47.7888C40.6901 47.818 40.6949 47.844 40.6884 47.8667L40.6052 48.2854C40.5922 48.3308 40.5109 48.4427 40.3614 48.6211C40.2771 48.5724 40.1814 48.5203 40.0743 48.465C39.9607 48.4325 39.8536 48.3772 39.7531 48.2992C39.7044 48.2115 39.6218 48.114 39.505 48.0068C39.4823 48.0002 39.4238 48.0327 39.3296 48.104C39.2419 48.1526 39.1753 48.1704 39.1299 48.1574L38.9645 47.9624C38.8543 47.8325 38.6694 47.7057 38.4098 47.5821C38.3383 47.6599 38.2733 47.715 38.2148 47.7475L37.9325 47.7034C37.8351 47.7 37.7523 47.6886 37.6842 47.669L37.5772 47.5277C37.5448 47.4693 37.4799 47.4384 37.3825 47.435L37.0222 47.4055C36.9248 47.4021 36.8534 47.3939 36.8079 47.3809C36.7625 47.3679 36.7284 47.3581 36.7057 47.3516L36.1412 47.0053C36.0892 47.015 36.0405 47.0133 35.9951 47.0003C35.9204 47.0035 35.8344 47.0034 35.737 47.0001L35.4499 46.844C35.4532 46.7466 35.3981 46.6816 35.2845 46.649C35.2618 46.6425 35.1952 46.6603 35.0848 46.7024C34.9679 46.7672 34.9046 46.7737 34.8949 46.7217C34.8949 46.7217 34.8332 46.6794 34.71 46.5949C34.6515 46.6273 34.5849 46.6451 34.5103 46.6483L34.2913 46.5117C34.2523 46.476 34.2248 46.4435 34.2086 46.4143C34.1697 46.3785 34.1388 46.3574 34.1161 46.3509L33.936 46.3361C33.949 46.2907 33.9329 46.1754 33.8876 45.9903C33.8226 46.0455 33.7966 46.1363 33.8094 46.2629L33.5075 46.287C33.4686 46.2513 33.4102 46.1976 33.3324 46.1261C33.2545 46.0547 33.1653 45.9799 33.0647 45.9019C33.0778 45.8565 33.06 45.7899 33.0114 45.7022L32.9091 45.6729L32.6363 45.8528C32.5843 45.8625 32.5243 45.8576 32.4561 45.838C32.3653 45.812 32.2711 45.7973 32.1737 45.7939L31.945 45.6914L32.3844 44.4161C32.5241 44.3578 32.6102 44.2718 32.6428 44.1582L32.6869 43.8759L33.224 42.2597C33.2696 42.1007 33.4174 42.057 33.6673 42.1287C33.7159 42.2164 33.771 42.2813 33.8327 42.3236C33.917 42.3724 34.0387 42.4196 34.1977 42.4652C34.3502 42.5335 34.532 42.5856 34.743 42.6215C34.7884 42.6345 34.8452 42.6508 34.9133 42.6704C34.975 42.7126 35.0593 42.7614 35.1664 42.8167L35.4633 42.9387L36.0281 43.0269L36.5976 43.2271C36.6431 43.2401 36.6852 43.2645 36.7242 43.3002L36.8507 43.3734C37.0259 43.4482 37.1703 43.5019 37.2839 43.5345C37.3748 43.5606 37.4316 43.5769 37.4543 43.5834C37.5256 43.6776 37.6067 43.7377 37.6976 43.7638C37.743 43.7768 37.8356 43.7542 37.9752 43.6959C38.1149 43.6376 38.2074 43.6149 38.2529 43.628C38.2724 43.5598 38.2968 43.5176 38.326 43.5014L38.3408 43.3213C38.3311 43.2693 38.336 43.2093 38.3556 43.1411C38.3686 43.0957 38.3768 43.0243 38.3801 42.9269C38.6334 42.9011 38.8528 42.6076 39.0383 42.0461L38.9118 41.973L38.6733 41.9046C38.6571 41.8753 38.662 41.8153 38.688 41.7244C38.7141 41.6335 38.7856 41.5557 38.9025 41.4909C39.0487 41.4099 39.1218 41.3694 39.1218 41.3694C39.0895 41.1388 39.0946 40.9067 39.137 40.6731C39.1501 40.6276 39.2248 40.5384 39.3613 40.4054C39.4978 40.2725 39.5823 40.1492 39.6149 40.0356L39.6537 40.1574L39.7755 40.1185L39.8048 40.0163C39.7724 39.9579 39.688 39.9091 39.5517 39.87C39.5647 39.8246 39.581 39.7678 39.6006 39.6996C39.5909 39.6477 39.5844 39.5843 39.5813 39.5097C39.5198 39.2954 39.4436 39.1752 39.3527 39.1491L39.0849 39.183C39.0687 39.1537 39.0363 39.0953 38.9877 39.0076C38.9098 38.9361 38.8596 38.8971 38.8368 38.8906C38.853 38.9198 38.7426 38.9619 38.5056 39.0168C38.3076 38.9355 38.1567 38.9045 38.0528 38.9239C37.9394 38.7193 37.8486 38.6072 37.7805 38.5876L37.6441 38.5486L37.3763 38.5824C37.3536 38.5759 37.3162 38.5775 37.2643 38.5872C37.2123 38.5968 37.1604 38.6065 37.1084 38.6162L36.8844 38.6257C36.8163 38.6062 36.7498 38.538 36.685 38.421C36.604 38.2749 36.5521 38.1985 36.5294 38.192C36.4482 38.2179 36.3362 38.2227 36.1934 38.2063C36.1934 38.2063 36.1999 38.1836 36.2129 38.1382C36.1967 38.1089 36.1984 38.0602 36.2179 37.9921C36.244 37.9012 36.2944 37.7682 36.3693 37.5929C36.4149 37.4339 36.4849 37.2327 36.5792 36.9893L36.6865 36.8726C36.6833 36.7979 36.7175 36.6356 36.7892 36.3857C36.8249 36.3468 36.8705 36.2738 36.9257 36.1667C36.981 36.0596 37.0152 35.9834 37.0282 35.938L37.0478 35.8698C37.0608 35.8244 37.0706 35.7043 37.0773 35.5095L37.1164 35.3732C37.162 35.2142 37.2465 35.0909 37.37 35.0034C37.6623 34.8413 37.8312 34.7668 37.8766 34.7798L38.154 34.97C38.1994 34.983 38.2595 34.988 38.3341 34.9848L38.5484 35.0093C38.5808 35.0678 38.6278 35.1182 38.6894 35.1604C38.7218 35.2189 38.7802 35.2725 38.8646 35.3213C38.9165 35.3116 38.9798 35.3052 39.0545 35.302C39.0999 35.315 39.1714 35.3232 39.2687 35.3265L39.6143 35.5363C39.8219 35.6696 39.9598 35.746 40.028 35.7655L40.3883 35.7951C40.4337 35.8081 40.4677 35.9039 40.4902 36.0825C40.3929 36.0791 40.3198 36.1196 40.271 36.204L40.2369 36.1942C40.1915 36.1812 40.1233 36.1617 40.0325 36.1356C39.9416 36.1095 39.854 36.0721 39.7696 36.0233L39.6965 36.1499L39.6769 36.218C39.6574 36.2862 39.68 36.3787 39.7448 36.4957C39.7675 36.5022 39.813 36.5152 39.8811 36.5347C39.9201 36.5705 39.9817 36.6128 40.0661 36.6615C40.1245 36.6291 40.1733 36.5448 40.2124 36.4085C40.274 36.4507 40.3585 36.4135 40.4657 36.2967C40.4981 36.3552 40.5874 36.3439 40.7335 36.2629L40.8019 36.0243C40.8604 35.9919 40.9286 35.9254 41.0066 35.8249C41.1852 35.8023 41.2908 35.7343 41.3234 35.6207C41.3234 35.6207 41.3072 35.5914 41.2747 35.533C41.2585 35.5037 41.257 35.4664 41.27 35.421L41.3091 35.2847C41.3286 35.2165 41.3482 35.1484 41.3677 35.0802C41.3872 35.012 41.4247 34.9244 41.4799 34.8174L41.4168 34.6517C41.5013 34.5285 41.7531 34.2933 42.1722 33.9464L42.1918 33.8782C42.2178 33.7874 42.2066 33.6981 42.1579 33.6104C42.0734 33.7337 41.9061 33.8455 41.6561 33.9459C41.5978 33.8063 41.5849 33.6796 41.6175 33.566C41.624 33.5433 41.7994 33.4461 42.1437 33.2744L42.0757 32.9968L41.9297 32.9918C41.8388 32.9657 41.8129 32.8845 41.852 32.7482C41.9105 32.7158 41.9933 32.6412 42.1005 32.5245C42.172 32.4466 42.2208 32.3623 42.2469 32.2714L42.174 32.1398C42.1805 32.1171 42.291 31.989 42.5054 31.7555L42.4814 31.4535C42.514 31.34 42.613 31.2946 42.7785 31.3175C42.7623 31.2882 42.7088 31.2606 42.6179 31.2345L42.6132 31.1225C42.7009 31.0739 42.7658 31.0188 42.8081 30.9572C42.8018 30.8078 42.745 30.7055 42.638 30.6502C42.5244 30.6177 42.4368 30.5802 42.3751 30.538C42.1869 30.5086 42.0019 30.4678 41.8201 30.4157C41.6384 30.3636 41.4453 30.3082 41.2408 30.2496C41.2442 30.1522 41.2004 30.0905 41.1095 30.0644C41.0641 30.0514 40.9325 30.1243 40.7149 30.2832C40.5786 30.2441 40.5235 30.0931 40.5498 29.8302L40.4475 29.8009C40.428 29.869 40.4003 29.9226 40.3646 29.9615C40.186 29.984 39.941 29.9384 39.6295 29.8244L39.2694 29.5368C39.2759 29.5141 39.1883 29.4767 39.0065 29.4245C38.9157 29.3985 38.8621 29.3708 38.8459 29.3416L38.3736 29.3168C38.3055 29.2973 38.2422 29.3037 38.1837 29.3361C38.1545 29.3523 38.0717 29.3409 37.9354 29.3018C37.7667 29.2042 37.7149 29.0419 37.78 28.8147C37.8061 28.7238 37.9086 28.4951 38.0875 28.1284C38.0875 28.1284 38.1167 28.1122 38.1752 28.0798C38.2109 28.0409 38.2353 27.9987 38.2483 27.9533L38.4926 27.1013C38.4926 27.1013 38.5673 27.0982 38.7166 27.0918C38.6488 26.7282 38.6442 26.4441 38.7028 26.2397C38.7354 26.1261 38.8361 26.032 39.005 25.9575L39.0298 25.4852C39.1337 25.4658 39.1856 25.4561 39.1856 25.4561ZM33.5628 44.4221L33.5288 44.4123C33.3925 44.3732 33.2561 44.4202 33.1196 44.5531C33.1617 44.6635 33.2055 44.7253 33.2509 44.7383L33.7282 44.617C33.6861 44.5066 33.631 44.4416 33.5628 44.4221ZM34.3814 43.8823C34.3749 43.9051 34.396 43.9603 34.4446 44.048C34.4446 44.048 34.4738 44.0318 34.5323 43.9994L34.3814 43.8823ZM39.8001 44.9198L39.5222 45.2458L39.6731 45.3628L39.7801 45.5041C39.9424 45.4524 40.0464 45.3469 40.092 45.1879C39.9818 45.058 39.8845 44.9686 39.8001 44.9198ZM41.3946 42.5743C41.3816 42.6197 41.3799 42.6684 41.3896 42.7204C41.3766 42.7658 41.3749 42.8145 41.3846 42.8664L41.6232 42.9348L41.6963 42.8083L41.5893 42.667L41.3946 42.5743ZM43.359 40.4823C43.346 40.5277 43.3314 40.5358 43.3152 40.5066L43.359 40.4823ZM41.7338 39.205C41.5681 39.3541 41.5518 39.497 41.6847 39.6334C41.714 39.6172 41.7676 39.5588 41.8456 39.4583C41.8651 39.3901 41.8279 39.3057 41.7338 39.205ZM42.6592 39.0646L42.4785 39.566L42.5514 39.6975L42.79 39.7659L42.8534 39.6735C42.8534 39.6735 42.8388 39.5956 42.8098 39.4397C42.7708 39.404 42.7904 39.3358 42.8684 39.2353C42.8002 39.2157 42.7305 39.1588 42.6592 39.0646ZM42.4702 38.0516C42.4572 38.097 42.4409 38.1538 42.4214 38.222C42.4018 38.2901 42.3709 38.355 42.3287 38.4167C42.3514 38.4232 42.4066 38.4021 42.4943 38.3535C42.5138 38.2854 42.5058 38.1847 42.4702 38.0516ZM38.3615 36.9472L38.3274 36.9374C38.282 36.9244 38.1619 36.9145 37.9671 36.9079L38.0886 37.1271C38.1145 37.2083 38.2005 37.2084 38.3467 37.1274C38.3728 37.0365 38.3777 36.9764 38.3615 36.9472ZM42.6734 34.3851C42.6441 34.4013 42.6538 34.4533 42.7024 34.541C42.7479 34.554 42.7852 34.5524 42.8144 34.5362L42.6734 34.3851ZM43.0883 33.324C43.0428 33.311 42.9455 33.3076 42.7961 33.314L42.8202 33.6159C42.9176 33.6192 42.976 33.5868 42.9956 33.5187L43.0883 33.324ZM44.6565 32.9992C44.6435 33.0447 44.6272 33.1015 44.6077 33.1696C44.5881 33.2378 44.5605 33.2913 44.5248 33.3302C44.541 33.3594 44.5929 33.3498 44.6806 33.3011L44.6565 32.9992ZM44.8374 32.2398C44.8017 32.2787 44.8 32.3274 44.8324 32.3858C44.8648 32.4443 44.9216 32.4606 45.0028 32.4347C44.9931 32.3827 44.938 32.3178 44.8374 32.2398ZM45.7156 30.4633C45.6214 30.5346 45.584 30.6222 45.6034 30.7261L45.7397 30.7652L45.8665 30.5803C45.8341 30.5218 45.7838 30.4828 45.7156 30.4633ZM41.0486 27.5761C41.0356 27.6215 41.0453 27.6735 41.0777 27.732C41.0939 27.7612 41.1426 27.7629 41.2237 27.737C41.2433 27.6688 41.1849 27.6152 41.0486 27.5761ZM41.1613 26.7971L40.5186 26.7235L40.5525 26.9913C40.5653 27.1179 40.6399 27.2008 40.7762 27.2399L41.1122 27.2256C41.1318 27.1574 41.1513 27.0893 41.1709 27.0211C41.1677 26.9464 41.1645 26.8718 41.1613 26.7971ZM32.7833 23.6572L32.9925 23.8278C33.1288 23.8669 33.2391 23.9108 33.3235 23.9596L33.5959 24.2958C33.7322 24.3349 33.8134 24.309 33.8394 24.2182C33.8817 24.1565 33.9369 24.1355 34.005 24.155L34.2386 24.3695C34.2451 24.3468 34.3084 24.3403 34.4285 24.3502C34.4641 24.4833 34.537 24.6149 34.6472 24.7448C34.6472 24.7448 34.7105 24.7384 34.8372 24.7255C34.915 24.797 35.022 24.9383 35.1581 25.1495L35.3769 25.5441L35.6252 25.5784C35.6349 25.6304 35.6527 25.6969 35.6786 25.7781C35.6979 25.882 35.7173 25.9859 35.7367 26.0898C35.7237 26.1353 35.7723 26.223 35.8825 26.3529L35.8918 26.835C35.8853 26.8577 35.9129 26.8902 35.9745 26.9325C36.0037 26.9163 36.0524 26.9179 36.1206 26.9375C36.166 26.9505 36.2017 26.9976 36.2276 27.0788L36.1928 27.8433C36.1894 27.9406 36.1893 28.0267 36.1925 28.1013C36.1665 28.1922 36.1469 28.2604 36.1339 28.3058L36.197 28.4714C36.184 28.5169 36.1758 28.5883 36.1725 28.6856C36.1691 28.783 36.1593 28.9031 36.1429 29.046L36.0938 29.4744C36.006 29.6951 35.9523 29.8395 35.9327 29.9076C35.9132 29.9758 35.8986 29.9839 35.8889 29.932L35.5772 29.9901C35.655 30.0616 35.7167 30.1038 35.7621 30.1169L35.6498 30.3797L35.7714 30.599C35.7615 30.7191 35.7517 30.8392 35.7418 30.9593C35.7027 31.0956 35.6588 31.2059 35.61 31.2903L35.5369 31.4168L35.3665 31.3679C35.2657 31.462 35.1958 31.5772 35.1568 31.7135L35.3562 31.9182C35.3367 31.9863 35.3139 32.0658 35.2878 32.1567C35.2618 32.2476 35.2471 32.3417 35.2437 32.4391C35.1624 32.637 35.0875 32.8123 35.0192 32.9648C34.9509 33.1173 34.8924 33.2357 34.8436 33.3201C34.8078 33.359 34.7023 33.4271 34.5269 33.5243C34.5755 33.612 34.6306 33.677 34.6922 33.7192L34.6434 33.8896C34.5557 33.9382 34.4907 33.9933 34.4485 34.055C34.3704 34.1555 34.2729 34.3243 34.1558 34.5611C34.1266 34.5773 34.0552 34.5691 33.9416 34.5366L33.7128 34.4341C33.7128 34.4341 33.6836 34.4503 33.6251 34.4827L33.693 34.7603C33.7385 34.7734 33.7758 34.7718 33.805 34.7556C33.9024 34.7589 33.9755 34.7184 34.0243 34.634C34.1995 34.7089 34.2545 34.8599 34.1894 35.0871L33.789 36.2261C33.6233 36.3753 33.5079 36.5635 33.4427 36.7906L33.4375 37.1948C33.4017 37.2337 33.3741 37.2873 33.3546 37.3554C33.3285 37.4463 33.2911 37.5339 33.2423 37.6183L32.9647 37.6862C33.0101 37.6992 33.0523 37.7236 33.0912 37.7593L32.9203 38.2266C32.8976 38.2201 32.8651 38.2477 32.8229 38.3093C32.8164 38.332 32.8617 38.4311 32.9589 38.6065L32.4954 39.5799C32.4077 39.6285 32.3427 39.6837 32.3005 39.7453C32.2094 39.8913 32.1201 39.9886 32.0324 40.0372C31.9155 40.102 31.8472 40.1685 31.8277 40.2367L31.8422 40.3146C31.8357 40.3373 31.8194 40.3941 31.7934 40.485C31.7673 40.5758 31.7201 40.6975 31.6518 40.85C31.6323 40.9182 31.6241 40.9896 31.6272 41.0643C31.6012 41.1551 31.5751 41.246 31.5491 41.3369C31.4514 41.6777 31.2903 42.1109 31.0658 42.6366C31.043 42.63 31.0074 42.5829 30.9588 42.4952L30.8906 42.4757C30.8679 42.4692 30.85 42.4887 30.837 42.5341L30.8368 42.7922L30.8267 43.0843C30.8007 43.1752 30.7405 43.2563 30.6463 43.3276C30.5424 43.347 30.432 43.3891 30.3151 43.4539L30.0322 43.926C29.938 43.9973 29.7497 44.0539 29.4672 44.0959C29.5063 43.9596 29.469 43.8751 29.3554 43.8426L29.2873 43.823C29.1737 43.7904 29.0974 43.8423 29.0583 43.9786L29.0628 44.3487L28.3369 44.6937L28.2931 44.718C28.2476 44.705 28.1212 44.5458 27.9137 44.2405L27.8699 44.2648C27.8114 44.2972 27.7757 44.3361 27.7626 44.3815C27.717 44.5406 27.7235 44.6039 27.7819 44.5715L27.6892 44.7662L27.2803 44.6489L27.0124 44.6827C26.8858 44.6956 26.8144 44.6874 26.7982 44.6582L26.6474 44.5412C26.6539 44.5185 26.6637 44.4844 26.6767 44.4389C26.6897 44.3935 26.7206 44.3286 26.7694 44.2443L26.6769 44.1809C26.5861 44.1548 26.5162 44.184 26.4675 44.2683L26.3991 44.5068C26.386 44.5523 26.3844 44.601 26.3941 44.6529C26.381 44.6984 26.3713 44.7324 26.3647 44.7552C26.2316 44.7907 26.1002 44.7776 25.9704 44.7158L25.6589 44.5159L25.2986 44.4863L24.9724 44.4665C24.9042 44.447 24.8037 44.369 24.6707 44.2325C24.6772 44.2098 24.6123 44.1789 24.476 44.1398L24.0671 44.0226L23.6875 43.8031C23.6713 43.7738 23.6551 43.7446 23.6389 43.7154C23.6227 43.6861 23.5951 43.6536 23.5562 43.6179L23.4101 43.6129L23.3079 43.5836C23.1716 43.5445 23.0046 43.3122 22.807 42.8868L22.4955 42.6868C22.4631 42.6284 22.434 42.5585 22.4081 42.4774C22.2297 42.3279 22.1324 42.1525 22.1164 41.9512C22.1002 41.922 22.1214 41.8051 22.18 41.6006C22.1802 41.4286 22.1365 41.2808 22.049 41.1574C22.0328 41.1282 21.9971 41.0811 21.942 41.0161C21.8869 40.9511 21.7977 40.8764 21.6744 40.7918C21.5967 40.5483 21.5823 40.3843 21.631 40.3C21.6376 40.2773 21.748 40.2352 21.9623 40.1737C22.1766 40.1122 22.287 40.0701 22.2935 40.0474C22.3066 40.002 22.3147 39.9306 22.3181 39.8332C22.3149 39.7585 22.2776 39.6741 22.2063 39.5799L22.0264 39.307C22.0037 39.3005 21.9956 39.2859 22.0021 39.2632C21.9697 39.2047 21.9633 39.1414 21.9828 39.0732L21.866 38.966L22.0276 38.0166L22.6184 36.3421C22.6477 36.3259 22.6769 36.3097 22.7061 36.2935C22.7354 36.2773 22.7679 36.2497 22.8036 36.2108C22.8297 36.1199 22.8703 36.0209 22.9256 35.9139C22.9582 35.8003 23.0086 35.6672 23.077 35.5147L23.1842 35.398L23.413 35.5004C23.4876 35.4973 23.6045 35.5185 23.7635 35.5641C23.8089 35.5771 23.89 35.6372 24.0068 35.7445C24.1236 35.8517 24.2047 35.9118 24.2501 35.9249C24.4156 35.9477 24.5958 35.9625 24.7906 35.9692C24.9788 35.9986 25.1784 36.0313 25.3894 36.0672C25.438 36.1549 25.4931 36.2198 25.5548 36.2621C25.6067 36.2524 25.7009 36.2671 25.8372 36.3062L26.4894 36.6039C26.5704 36.75 26.5914 36.8912 26.5523 37.0276C26.5327 37.0957 26.432 37.1898 26.2501 37.3097L26.2353 37.4898C26.2061 37.506 26.185 37.5369 26.1719 37.5823C26.1589 37.6277 26.1313 37.6813 26.089 37.7429C25.9814 38.2038 25.7813 38.6873 25.4887 39.1934C25.5438 39.2584 25.6086 39.3753 25.6831 39.5442C25.5111 39.5441 25.3033 39.5828 25.0597 39.6605L25.0206 39.7968L25.1131 39.8602C25.1131 39.8602 25.2235 39.8181 25.4443 39.7339L25.5709 39.8071L25.4 40.2744C25.2961 40.2937 25.2003 40.3277 25.1126 40.3763C25.0735 40.5127 25.075 40.636 25.1171 40.7464L25.5897 40.5131L25.8377 40.8055C25.9383 40.8836 26.0876 40.9632 26.2855 41.0446C26.3147 41.0284 26.3634 41.03 26.4316 41.0496C26.4543 41.0561 26.5062 41.1324 26.5872 41.2786L27.3374 40.9774C27.5647 40.8705 27.7272 40.7327 27.8247 40.564C27.961 40.6031 28.0585 40.5204 28.1171 40.3159L28.1419 39.8436C28.168 39.7527 28.2362 39.6862 28.3466 39.6441C28.4472 39.7222 28.4941 39.8585 28.4874 40.0533L28.5799 40.1167L28.6871 39.9999C28.7067 39.9318 28.6646 39.8214 28.5608 39.6687L28.3955 39.4738C28.4345 39.3375 28.4785 39.2271 28.5273 39.1428L28.6009 38.5001L28.9081 38.0719L29.0253 37.6629L29.308 37.4489L29.3471 37.3126C29.4252 37.04 29.5715 36.873 29.7858 36.8115C29.6949 36.7855 29.5895 36.6815 29.4696 36.4996L30.2057 35.6043C30.2025 35.5296 30.2644 35.3138 30.3914 34.9568L31.1433 32.8491L31.5787 30.6875C31.5982 30.6193 31.7022 30.5139 31.8906 30.3713C31.8744 30.342 31.8615 30.3014 31.8518 30.2495C31.8194 30.191 31.7756 30.1293 31.7205 30.0643L31.7498 29.9621L32.0858 29.9478C32.0923 29.9251 32.0908 29.8878 32.0811 29.8358C32.0649 29.8066 32.0519 29.766 32.0422 29.714L32.0327 29.49C32.1951 29.4382 32.3738 29.2436 32.5689 28.9062C32.4845 28.8574 32.449 28.7243 32.4621 28.5068C32.4753 28.2893 32.5258 28.1563 32.6135 28.1077C32.5973 28.0784 32.4756 28.0312 32.2484 27.9661L32.2973 27.7957L32.4386 27.6887C32.4224 27.6595 32.3867 27.6124 32.3316 27.5474C32.2765 27.4824 32.1986 27.4109 32.0981 27.3329C32.1306 27.2193 32.1162 27.0554 32.0547 26.8411L31.9086 26.8361L31.7966 26.8408C31.7966 26.8408 31.735 26.7986 31.6117 26.7141L31.5095 26.6847C31.3959 26.6522 31.2952 26.6602 31.2075 26.7088C31.201 26.7315 31.1604 26.7445 31.0858 26.7476C31.0273 26.78 30.9981 26.7962 30.9981 26.7962L30.9883 26.8303C31.0337 26.8434 31.0565 26.8499 31.0565 26.8499L31.1685 26.8451C31.1392 26.8613 31.1019 26.8629 31.0565 26.8499L30.8665 26.8692L30.6085 26.8689C30.5857 26.8624 30.5663 26.8445 30.5501 26.8153C30.5566 26.7926 30.5485 26.778 30.5258 26.7715C30.4576 26.7519 30.3845 26.7924 30.3065 26.893C30.2481 26.9254 30.2106 27.013 30.1943 27.1558C29.928 27.227 29.8305 27.3957 29.9016 27.662C29.7164 27.8793 29.583 28.1729 29.5015 28.5429L28.9498 30.0812C28.8459 30.1005 28.7355 30.1426 28.6185 30.2075C28.4659 30.3112 28.3717 30.3825 28.3359 30.4214C28.3359 30.4214 28.3473 30.4247 28.37 30.4312C28.3927 30.4377 28.4527 30.5287 28.5499 30.7041C28.5531 30.7787 28.6017 30.8664 28.6957 30.9672L29.4016 31.2064C29.46 31.174 29.512 31.1643 29.5574 31.1774L29.7326 31.3382C29.7553 31.3447 29.7813 31.3399 29.8105 31.3237C29.8105 31.3237 29.8219 31.3269 29.8446 31.3335L30.0247 31.3482C30.0474 31.3548 30.075 31.3872 30.1074 31.4457C30.1236 31.4749 30.1658 31.4993 30.2339 31.5189C30.2632 31.5027 30.3459 31.5141 30.4823 31.5532L30.5113 31.709L30.3893 32.006L30.3648 32.2202L30.3452 32.2883C30.3192 32.3792 30.2411 32.4798 30.1112 32.59C29.9877 32.6776 29.9195 32.744 29.9065 32.7895L29.9646 33.1012L29.8038 33.2763L29.8181 33.6123C29.7304 33.6609 29.5647 33.7241 29.3212 33.8018C29.3147 33.8245 29.3357 33.8797 29.3843 33.9674C29.3843 33.9674 29.4509 33.9496 29.584 33.914L29.7544 33.9629L29.7056 34.1332C29.6763 34.1494 29.6471 34.1657 29.6179 34.1819C29.5821 34.2208 29.5496 34.2483 29.5204 34.2645C29.5204 34.2645 29.4749 34.3375 29.3838 34.4835C29.1695 34.545 29.0397 34.5692 28.9942 34.5562L28.8191 34.3954C28.725 34.2946 28.6666 34.241 28.6439 34.2345L28.4978 34.2295C28.4459 34.2392 28.3858 34.2342 28.3177 34.2147L26.901 33.8822C26.7712 33.8204 26.7145 33.7181 26.7309 33.5753L26.7264 33.2052C26.6744 33.2149 26.5299 33.2472 26.2929 33.3022C26.1175 33.3994 25.9909 33.4123 25.913 33.3408L25.6357 33.1506C25.5837 33.1603 25.535 33.1586 25.4896 33.1456C25.4441 33.1326 25.3841 33.1276 25.3094 33.1308C25.2023 33.0755 25.1099 33.0121 25.032 32.9407C24.925 32.8854 24.8179 32.8301 24.7108 32.7748L24.6427 32.7552C24.4609 32.7031 24.2791 32.737 24.0972 32.857C23.9966 32.779 23.9903 32.6296 24.0781 32.409L24.5171 31.6498L24.488 31.4939C24.4849 31.4192 24.4963 31.3365 24.5224 31.2456C24.5907 31.0931 24.6703 31.0299 24.7612 31.0559L24.8536 31.1193C24.8828 31.1031 24.904 31.0723 24.917 31.0269C24.917 31.0269 24.9008 30.9976 24.8684 30.9392L24.7321 30.9001C24.7581 30.8092 24.7988 30.7102 24.8541 30.6032C24.8867 30.4896 24.9371 30.3565 25.0054 30.204C25.0931 30.1554 25.1581 30.1003 25.2004 30.0386L25.1956 29.9266C25.2282 29.813 25.2738 29.654 25.3324 29.4496C25.3683 29.2386 25.4205 28.9708 25.489 28.6463C25.5767 28.5976 25.6887 28.5929 25.825 28.632C25.8639 28.6677 25.9126 28.6694 25.9711 28.637C26.0295 28.6046 26.0507 28.5737 26.0345 28.5445C26.0021 28.486 25.9372 28.4551 25.8398 28.4518C25.8105 28.468 25.7797 28.4469 25.7473 28.3884C25.7931 28.0573 25.8518 27.7669 25.9234 27.517C25.9724 27.2605 26.0343 27.0447 26.1091 26.8695L26.3774 26.3195C26.4392 26.1897 26.4978 26.0713 26.5531 25.9642C26.6019 25.8799 26.636 25.8036 26.6556 25.7354L26.7776 25.4385C26.823 25.4516 26.9318 25.4582 27.1038 25.4583C27.2466 25.4747 27.3246 25.4601 27.3376 25.4147C27.3571 25.3466 27.1884 25.249 26.8314 25.1221L26.8705 24.9858C26.8901 24.9176 26.9129 24.8381 26.9389 24.7472C26.9585 24.6791 26.9959 24.5915 27.0512 24.4844C27.2301 24.1177 27.3277 23.863 27.3441 23.7202C27.3571 23.6747 27.3928 23.6358 27.4513 23.6034C27.4416 23.5514 27.4531 23.4687 27.4856 23.3551L27.5149 23.2529C27.6188 23.2335 27.7146 23.1995 27.8023 23.1509C27.8185 23.1801 27.8347 23.2093 27.851 23.2386C27.8672 23.2678 27.8834 23.297 27.8996 23.3263C27.945 23.3393 27.9969 23.3296 28.0554 23.2972L28.1774 23.0003L28.085 22.9369C28.0168 22.9173 27.8756 22.9383 27.6613 22.9998L27.6858 22.7856L27.9492 22.3816C28.1017 22.45 28.2574 22.5069 28.4165 22.5525C28.5528 22.5916 28.6745 22.6388 28.7815 22.6941L29.1028 22.8599C29.0962 22.8827 29.0475 22.881 28.9567 22.8549C28.9405 22.8257 28.8885 22.8354 28.8008 22.884L28.7374 22.9765C28.8023 23.0934 28.8882 23.1795 28.9953 23.2348C29.1545 23.1083 29.2827 23.0468 29.3801 23.0501C29.4386 23.0177 29.4743 22.9788 29.4874 22.9334C29.5686 22.9075 29.6935 22.9433 29.8622 23.0408C29.9207 23.0084 29.9092 23.1772 29.8276 23.5472L29.764 23.8978C29.7964 23.9562 29.8581 23.9985 29.9489 24.0245C30.0625 24.0571 30.1339 24.0653 30.1632 24.0491L30.5676 23.7963C30.5968 23.7801 30.6487 23.7704 30.7234 23.7672C30.7754 23.7575 30.8387 23.7511 30.9133 23.7479C30.9783 23.6928 31.0952 23.628 31.2641 23.5535L31.678 23.5246C31.7689 23.5507 31.8711 23.58 31.9847 23.6126C32.0983 23.6452 32.2379 23.6729 32.4034 23.6958C32.4327 23.6796 32.4992 23.6618 32.6031 23.6424C32.707 23.623 32.7671 23.6279 32.7833 23.6572ZM28.3983 41.6504C28.3593 41.6147 28.3106 41.613 28.2522 41.6454C28.1937 41.6778 28.1807 41.7232 28.2131 41.7817C28.2585 41.7947 28.3203 41.751 28.3983 41.6504ZM29.3682 40.7115C29.3 40.692 29.1295 40.7291 28.8568 40.823C28.9866 40.8848 29.0758 40.9596 29.1244 41.0473L29.28 41.2763C29.3094 41.088 29.3371 40.9485 29.3632 40.8576C29.3665 40.7602 29.3682 40.7115 29.3682 40.7115ZM23.0397 38.86C23.0008 38.8242 22.9228 38.8388 22.8059 38.9036C22.8221 38.9328 22.8529 38.9539 22.8984 38.967C22.9665 38.9865 23.0136 38.9508 23.0397 38.86ZM23.9655 38.2035C23.9297 38.2424 23.9281 38.2911 23.9605 38.3496C23.9702 38.4015 24.0189 38.4032 24.1066 38.3546C24.1261 38.2864 24.0791 38.2361 23.9655 38.2035ZM24.751 36.6217L24.7169 36.6119C24.5806 36.5728 24.4475 36.6084 24.3175 36.7186C24.1812 36.6796 24.0481 36.7151 23.9181 36.8254L24.2486 37.4733L24.5556 37.3032C24.5492 37.1539 24.6143 36.9267 24.751 36.6217ZM29.8918 37.9851L29.8089 38.1458L29.877 38.1653L29.9259 37.9949L29.8918 37.9851ZM29.9066 37.805L29.853 37.8634L29.8773 37.9072L29.9747 37.8245L29.9066 37.805ZM27.5397 33.0696C27.4455 33.141 27.4113 33.2172 27.4372 33.2984L27.666 33.4009L27.7344 33.1624L27.5397 33.0696ZM27.6715 32.7387C27.6422 32.7549 27.5822 32.7499 27.4913 32.7239L27.4718 32.792C27.4653 32.8147 27.4734 32.8294 27.4961 32.8359C27.4961 32.8359 27.4928 32.8472 27.4863 32.8699C27.5837 32.8733 27.6454 32.8295 27.6715 32.7387ZM32.3162 33.5173C32.2869 33.5335 32.2625 33.5757 32.243 33.6439C32.2592 33.6731 32.3014 33.6975 32.3695 33.717C32.3502 33.6131 32.3324 33.5465 32.3162 33.5173ZM33.0964 32.3397L33.0135 32.5003C33.0621 32.588 33.0798 32.7406 33.0666 32.958C33.0275 33.0944 33.0875 33.1853 33.2465 33.2309L33.3828 33.27L33.456 33.1435C33.4625 33.1207 33.469 33.098 33.4755 33.0753C33.4528 33.0688 33.4447 33.0542 33.4512 33.0315L33.4464 32.9195C33.4595 32.874 33.4758 32.8172 33.4953 32.7491C33.5083 32.7036 33.5165 32.6322 33.5198 32.5348C33.4906 32.551 33.4192 32.5429 33.3056 32.5103L33.0964 32.3397ZM32.6684 31.7744C32.61 31.8068 32.5775 31.8344 32.571 31.8571C32.5514 31.9252 32.5984 31.9756 32.712 32.0082C32.7543 31.9465 32.7397 31.8686 32.6684 31.7744ZM27.9378 29.2378L27.7819 29.2669L27.8207 29.3886C27.85 29.3724 27.8678 29.353 27.8744 29.3302C27.8809 29.3075 27.902 29.2767 27.9378 29.2378ZM29.391 26.9992C29.4787 26.9506 29.5436 26.8955 29.5859 26.8339C29.5989 26.7884 29.573 26.7072 29.5082 26.5903L29.391 26.9992ZM35.8708 28.4516C35.8092 28.4094 35.7312 28.4239 35.637 28.4952C35.6694 28.5537 35.697 28.5862 35.7197 28.5927C35.7879 28.6122 35.8382 28.5652 35.8708 28.4516ZM30.5699 26.4891L30.5308 26.6254C30.547 26.6546 30.5892 26.679 30.6573 26.6985L30.7109 26.6402C30.724 26.5947 30.7224 26.5574 30.7062 26.5282L30.5699 26.4891ZM28.7638 25.9712C28.7281 26.0101 28.7264 26.0588 28.7588 26.1173C28.7912 26.1757 28.8366 26.1888 28.8951 26.1564C28.9081 26.1109 28.8644 26.0492 28.7638 25.9712ZM35.7014 27.3705C35.5748 27.3833 35.4838 27.4433 35.4285 27.5504C35.3928 27.5893 35.3911 27.638 35.4235 27.6964L35.5258 27.7258L35.7014 27.3705ZM30.541 26.0751C30.515 26.166 30.5247 26.218 30.5701 26.231L30.6966 26.3041L30.8039 26.1874L30.541 26.0751ZM31.5162 24.7321C31.4253 24.706 31.3263 24.7514 31.219 24.8682L31.2677 24.9559C31.4332 24.9787 31.5452 24.974 31.6037 24.9416C31.5875 24.9123 31.5712 24.8831 31.555 24.8539C31.5388 24.8246 31.5259 24.7841 31.5162 24.7321Z" fill="#052930"/>
<defs>
<linearGradient id="paint0_linear_14_335" x1="32.4245" y1="63.4694" x2="47.8485" y2="9.67936" gradientUnits="userSpaceOnUse">
<stop stop-color="#F9DBAF"/>
<stop offset="0.495" stop-color="#938167"/>
<stop offset="1" stop-color="#F9DBAF"/>
</linearGradient>
</defs>
</svg>
